<svg width="306" height="306" viewBox="0 0 306 306" fill="none" xmlns="http://www.w3.org/2000/svg">
<g clip-path="url(#clip0_38_19)">
<path d="M215.631 297.645H90.3686L71.1399 79.8635H234.86L215.631 297.645Z" fill="#51AF55"/>
<path d="M71.1399 79.8635L90.3686 297.645H143.693L124.464 79.8635H71.1399Z" fill="#428F46"/>
<path d="M215.693 306H90.3686C88.2788 305.994 86.2658 305.211 84.7215 303.803C83.1772 302.395 82.212 300.463 82.0137 298.382L62.785 80.6007C62.6919 79.4451 62.8385 78.2828 63.2157 77.1865C63.5929 76.0903 64.1926 75.0838 64.977 74.2301C65.7614 73.3765 66.7137 72.6941 67.7743 72.2258C68.8348 71.7574 69.9806 71.5133 71.1399 71.5085H234.86C236.017 71.5125 237.16 71.7568 238.218 72.2257C239.276 72.6947 240.224 73.3782 241.004 74.2329C241.784 75.0877 242.377 76.095 242.747 77.1911C243.117 78.2873 243.256 79.4483 243.154 80.6007L223.925 298.382C223.742 300.447 222.798 302.37 221.277 303.778C219.756 305.186 217.765 305.978 215.693 306ZM98.0478 289.29H207.952L225.706 88.2184H80.5393L98.0478 289.29Z" fill="#1E1E1E"/>
<path d="M140.805 40.4847V8.35498H79.2491V40.4847H45.8907V79.8635H107.447V40.4847H140.805Z" fill="#C6C5C4"/>
<path d="M260.048 88.2187H45.8908C43.6749 88.2187 41.5498 87.3384 39.9829 85.7716C38.4161 84.2047 37.5358 82.0796 37.5358 79.8637V40.4849C37.5358 38.269 38.4161 36.1439 39.9829 34.577C41.5498 33.0102 43.6749 32.1299 45.8908 32.1299H70.8942V8.35517C70.8942 7.2528 71.1123 6.16131 71.536 5.14362C71.9597 4.12593 72.5806 3.20214 73.363 2.42551C74.1453 1.64887 75.0736 1.03473 76.0944 0.618489C77.1152 0.202244 78.2082 -0.00787983 79.3106 0.00022588H226.751C227.848 0.00022588 228.934 0.216333 229.948 0.636209C230.962 1.05608 231.883 1.67151 232.659 2.44733C233.435 3.22316 234.05 4.14421 234.47 5.15787C234.89 6.17154 235.106 7.25799 235.106 8.35517V32.1299H260.109C261.212 32.1218 262.305 32.3319 263.325 32.7482C264.346 33.1644 265.274 33.7786 266.057 34.5552C266.839 35.3318 267.46 36.2556 267.884 37.2733C268.307 38.291 268.526 39.3825 268.526 40.4849V79.8637C268.526 80.9713 268.306 82.0679 267.878 83.0897C267.451 84.1114 266.824 85.038 266.035 85.8154C265.246 86.5929 264.311 87.2057 263.283 87.6183C262.255 88.0309 261.155 88.2349 260.048 88.2187ZM54.2457 71.5088H251.693V49.147H226.689C224.474 49.147 222.348 48.2667 220.782 46.6999C219.215 45.133 218.334 43.0079 218.334 40.792V16.7101H87.6655V40.4849C87.7068 41.6076 87.5213 42.7272 87.1199 43.7766C86.7186 44.826 86.1097 45.7836 85.3297 46.5923C84.5497 47.401 83.6147 48.044 82.5804 48.4829C81.5462 48.9219 80.4341 49.1477 79.3106 49.147H54.2457V71.5088Z" fill="#1E1E1E"/>
<path d="M195.911 49.1467H80.5392C78.2826 49.1467 76.1185 48.2503 74.5228 46.6546C72.9271 45.0589 72.0307 42.8948 72.0307 40.6382C72.0307 38.3816 72.9271 36.2174 74.5228 34.6217C76.1185 33.0261 78.2826 32.1296 80.5392 32.1296H195.911C198.168 32.1296 200.332 33.0261 201.928 34.6217C203.523 36.2174 204.42 38.3816 204.42 40.6382C204.42 42.8948 203.523 45.0589 201.928 46.6546C200.332 48.2503 198.168 49.1467 195.911 49.1467Z" fill="#1E1E1E"/>
<path d="M225.461 194.314H80.5392C78.456 194.307 76.4505 193.522 74.9162 192.112C73.382 190.703 72.4295 188.771 72.2457 186.696L69.2355 152.969C69.1334 151.817 69.2717 150.656 69.6418 149.56C70.0118 148.464 70.6055 147.456 71.3851 146.602C72.1648 145.747 73.1134 145.063 74.171 144.594C75.2286 144.125 76.3721 143.881 77.529 143.877H228.471C229.626 143.879 230.769 144.119 231.826 144.585C232.883 145.05 233.833 145.729 234.614 146.58C235.36 147.412 235.933 148.383 236.302 149.437C236.671 150.492 236.828 151.608 236.764 152.724L234.123 186.696C233.921 188.83 232.912 190.807 231.302 192.223C229.692 193.638 227.603 194.386 225.461 194.314ZM88.157 177.604H217.782L219.317 160.587H86.6826L88.157 177.604Z" fill="#1E1E1E"/>
<path d="M112.362 169.986C112.362 175.316 113.413 180.594 115.454 185.517C117.495 190.44 120.488 194.913 124.259 198.678C128.031 202.444 132.508 205.43 137.434 207.464C142.36 209.498 147.64 210.54 152.969 210.532C206.785 208.566 206.785 131.345 152.969 129.379C142.199 129.379 131.871 133.657 124.255 141.272C116.64 148.888 112.362 159.217 112.362 169.986Z" fill="white"/>
<path d="M147.256 169.986C147.212 162.276 149.368 154.713 153.47 148.185C157.572 141.656 163.451 136.432 170.416 133.126C164.227 130.184 157.393 128.857 150.552 129.268C143.712 129.678 137.086 131.813 131.292 135.474C125.499 139.135 120.726 144.203 117.419 150.205C114.112 156.207 112.377 162.949 112.377 169.802C112.377 176.655 114.112 183.397 117.419 189.399C120.726 195.402 125.499 200.469 131.292 204.13C137.086 207.791 143.712 209.926 150.552 210.337C157.393 210.747 164.227 209.42 170.416 206.478C163.516 203.187 157.684 198.018 153.587 191.563C149.491 185.109 147.297 177.631 147.256 169.986Z" fill="#C6C5C4"/>
<path d="M152.969 218.949C139.935 218.949 127.434 213.771 118.217 204.554C109 195.337 103.823 182.837 103.823 169.802C106.526 104.805 199.106 104.867 201.747 169.802C201.748 182.773 196.62 195.218 187.483 204.424C178.346 213.631 165.94 218.852 152.969 218.949ZM152.969 137.734C144.42 137.75 136.226 141.153 130.181 147.198C124.136 153.243 120.733 161.437 120.717 169.986C122.253 212.621 183.747 212.621 185.222 169.986C185.222 161.432 181.824 153.229 175.775 147.18C169.727 141.132 161.523 137.734 152.969 137.734Z" fill="#1E1E1E"/>
</g>
<defs>
<clipPath id="clip0_38_19">
<rect width="306" height="306" fill="white"/>
</clipPath>
</defs>
</svg>
